<?xml version="1.0" standalone="no"?>
<!DOCTYPE svg PUBLIC "-//W3C//DTD SVG 20010904//EN"
 "http://www.w3.org/TR/2001/REC-SVG-20010904/DTD/svg10.dtd">
<svg version="1.0" xmlns="http://www.w3.org/2000/svg"
 width="368.000000pt" height="368.000000pt" viewBox="0 0 368.000000 368.000000"
 preserveAspectRatio="xMidYMid meet">
<metadata>
Created by potrace 1.11, written by Peter Selinger 2001-2013
</metadata>
<g transform="translate(0.000000,368.000000) scale(0.100000,-0.100000)"
fill="#000000" stroke="none">
<path d="M1 2798 l2 -883 18 137 c20 160 55 305 104 438 43 113 147 314 181
348 13 14 24 31 24 38 0 7 29 50 65 94 36 45 63 85 60 91 -4 5 -3 8 2 7 15 -4
53 13 53 24 0 14 47 58 54 50 3 -3 6 1 6 10 0 17 44 61 52 52 3 -3 18 10 32
29 15 19 45 47 66 61 41 27 50 49 28 63 -7 4 -13 18 -14 31 -3 91 -4 98 -18
80 -19 -25 -21 -23 -21 21 0 22 3 37 8 34 4 -2 7 -11 7 -19 0 -8 5 -12 10 -9
14 9 12 48 -4 80 -9 17 -16 22 -19 13 -4 -9 -6 -7 -6 5 -1 9 3 17 9 17 5 0 9
16 7 35 l-2 35 -177 0 c-192 0 -184 2 -179 -52 1 -10 -3 -18 -9 -18 -13 0 -32
48 -24 61 3 5 -17 9 -44 9 -43 0 -50 -3 -56 -22 -4 -15 1 -33 14 -50 22 -30
27 -68 9 -68 -7 0 -20 -10 -30 -22 l-19 -21 0 36 c0 21 4 37 8 37 10 0 9 36
-1 46 -4 4 -7 20 -7 36 0 27 -2 28 -51 28 -40 0 -56 -5 -70 -21 -20 -23 -18
-77 3 -90 10 -7 8 -9 -5 -9 -11 0 -18 -7 -16 -17 4 -42 -2 -83 -12 -83 -6 0
-10 15 -8 33 1 17 1 67 0 110 -1 62 -4 77 -16 77 -14 0 -15 -95 -14 -882z
m676 755 c-3 -10 -5 -2 -5 17 0 19 2 27 5 18 2 -10 2 -26 0 -35z m-54 -8 c5
-28 4 -34 -3 -20 -8 19 -14 73 -6 64 2 -2 6 -22 9 -44z m-123 -2 c0 -19 -3
-24 -10 -17 -6 6 -8 18 -4 27 9 24 14 21 14 -10z m-349 -16 c-10 -9 -11 -8 -5
6 3 10 9 15 12 12 3 -3 0 -11 -7 -18z m120 -50 c-13 -13 -14 5 -3 43 l7 25 3
-29 c2 -16 -1 -33 -7 -39z m-148 13 c-3 -11 -7 -20 -9 -20 -2 0 -4 9 -4 20 0
11 4 20 9 20 5 0 7 -9 4 -20z m467 -23 c0 -18 -2 -19 -10 -7 -13 20 -13 43 0
35 6 -3 10 -16 10 -28z m-384 -3 c-6 -29 -13 -40 -21 -32 -6 6 12 58 20 58 3
0 3 -12 1 -26z m-169 -46 c-3 -7 -5 -2 -5 12 0 14 2 19 5 13 2 -7 2 -19 0 -25z
m82 -20 c-11 -19 -14 -20 -17 -6 -2 9 2 27 9 40 11 19 14 20 17 6 2 -9 -2 -27
-9 -40z m198 -50 c-3 -7 -5 -2 -5 12 0 14 2 19 5 13 2 -7 2 -19 0 -25z m-277
-197 c0 -6 -4 -13 -10 -16 -5 -3 -10 1 -10 9 0 9 5 16 10 16 6 0 10 -4 10 -9z
m87 -53 c-3 -7 -5 -2 -5 12 0 14 2 19 5 13 2 -7 2 -19 0 -25z m-30 -50 c-3 -8
-6 -5 -6 6 -1 11 2 17 5 13 3 -3 4 -12 1 -19z m68 12 c3 -5 1 -10 -4 -10 -6 0
-11 5 -11 10 0 6 2 10 4 10 3 0 8 -4 11 -10z m-68 -86 c-3 -25 -11 -51 -18
-58 -9 -8 -10 -8 -4 3 5 8 8 34 6 58 -1 26 2 43 9 43 7 0 10 -16 7 -46z m-80
4 c-3 -7 -5 -2 -5 12 0 14 2 19 5 13 2 -7 2 -19 0 -25z"/>
<path d="M745 3613 c4 -38 9 -79 10 -93 1 -14 4 -25 5 -25 4 0 11 -95 11 -133
l-1 -33 31 23 c22 16 26 24 16 26 -21 4 -31 32 -12 32 20 0 19 15 -1 35 -13
12 -15 27 -9 75 5 41 4 60 -4 60 -6 0 -11 12 -11 28 0 43 -11 72 -28 72 -12 0
-14 -10 -7 -67z"/>
<path d="M801 3664 c9 -11 9 -14 0 -14 -7 0 -6 -9 5 -25 10 -16 14 -34 10 -50
-4 -16 -1 -34 9 -48 10 -14 15 -44 15 -85 l0 -63 33 18 c17 10 39 23 47 30 8
6 22 13 30 15 14 3 21 7 55 36 8 7 15 10 15 7 0 -3 17 3 38 14 20 10 57 24 82
31 25 6 55 18 67 26 12 8 30 16 40 18 10 1 25 5 33 8 69 25 190 54 275 67 159
23 438 21 600 -6 103 -16 255 -55 255 -65 0 -4 7 -5 15 -2 8 4 15 1 15 -5 0
-6 9 -11 21 -11 19 0 118 -41 176 -73 269 -147 422 -268 593 -467 36 -42 73
-87 83 -100 139 -196 252 -443 303 -659 29 -124 44 -266 44 -416 0 -188 -13
-295 -55 -460 -85 -332 -248 -610 -501 -855 -150 -145 -271 -230 -449 -319
-240 -119 -435 -172 -695 -190 -570 -40 -1141 201 -1508 634 -269 319 -417
697 -438 1120 -4 66 -8 122 -10 124 -2 2 -4 -424 -4 -947 l0 -952 1840 0 1840
0 0 1840 0 1840 -170 0 -169 0 -4 -27 -4 -28 -2 27 -1 27 -379 1 -380 0 -4
-52 -3 -53 -2 53 -2 52 -40 0 c-23 0 -53 -8 -68 -17 -21 -14 -24 -14 -15 -2
11 13 7 15 -27 17 -35 3 -39 0 -43 -25 l-4 -28 -2 28 c-1 23 -5 27 -32 27 -19
0 -37 -7 -45 -17 -12 -17 -13 -17 -14 -1 0 16 -31 17 -424 18 -334 0 -425 -2
-429 -12 -4 -10 -6 -10 -6 0 -1 9 -40 12 -159 12 -146 0 -159 -1 -157 -18 0
-9 3 -22 6 -27 3 -6 2 -23 -1 -40 l-7 -30 -7 26 c-4 14 -6 29 -5 35 8 42 -1
51 -50 52 -49 1 -50 0 -54 -31 l-4 -32 -1 33 -2 33 -90 -2 c-75 -1 -88 -4 -79
-15z m2724 -4 c3 -5 1 -10 -4 -10 -6 0 -11 5 -11 10 0 6 2 10 4 10 3 0 8 -4
11 -10z m-888 -67 c-2 -16 -4 -5 -4 22 0 28 2 40 4 28 2 -13 2 -35 0 -50z
m-104 32 c-3 -9 -8 -14 -10 -11 -3 3 -2 9 2 15 9 16 15 13 8 -4z m807 -53 c0
-28 -4 -39 -15 -39 -8 0 -15 6 -15 14 0 7 5 13 10 13 6 0 10 11 10 25 0 14 2
25 5 25 3 0 5 -17 5 -38z m-2465 0 c-8 -8 -25 10 -19 20 4 6 9 5 15 -3 4 -7 6
-15 4 -17z m115 7 c0 -6 -4 -7 -10 -4 -5 3 -10 11 -10 16 0 6 5 7 10 4 6 -3
10 -11 10 -16z m0 -94 c0 -8 -2 -15 -4 -15 -2 0 -6 7 -10 15 -3 8 -1 15 4 15
6 0 10 -7 10 -15z m2334 -10 c-4 -8 -1 -15 5 -15 6 0 11 -4 11 -10 0 -5 -7
-10 -15 -10 -9 0 -15 9 -15 25 0 14 4 25 10 25 5 0 7 -7 4 -15z m16 -144 c0
-32 -3 -87 -7 -122 l-8 -64 -6 45 c-6 44 -6 43 -9 -20 -3 -55 -4 -48 -11 50
-7 112 -3 153 12 114 6 -14 8 -9 8 19 1 62 21 42 21 -22z"/>
<path d="M3312 3280 c0 -19 2 -27 5 -17 2 9 2 25 0 35 -3 9 -5 1 -5 -18z"/>
<path d="M990 2736 c-176 -39 -307 -118 -395 -237 -138 -188 -134 -457 11
-631 102 -122 232 -193 499 -273 301 -89 376 -121 390 -166 17 -52 -19 -105
-89 -134 -50 -21 -192 -22 -265 -1 -104 29 -184 107 -197 191 l-6 44 -152 3
c-83 2 -184 2 -223 0 l-73 -3 0 -324 0 -325 209 0 209 0 6 32 c3 18 8 58 12
88 10 84 13 85 74 29 177 -162 417 -221 685 -167 58 11 154 45 172 60 7 6 13
7 13 4 0 -4 10 2 22 14 12 11 25 20 30 20 16 0 47 34 41 44 -4 6 1 5 10 -3 16
-12 22 -9 57 27 90 96 140 206 150 332 0 3 235 6 523 7 287 2 528 3 535 3 9 0
12 49 12 210 l0 210 -165 0 -165 0 0 -85 0 -85 -52 -1 c-29 0 -99 -2 -155 -4
l-103 -3 -1 51 c-1 29 -2 102 -3 162 l-1 110 165 2 c91 0 173 2 183 2 15 1 17
14 17 121 l0 120 -147 1 c-82 1 -163 0 -180 -1 -38 -2 -35 -14 -37 157 l-1
121 158 1 157 1 0 -91 0 -92 73 6 c39 4 113 7 162 7 l90 0 3 205 4 205 -780 0
c-647 0 -781 -2 -785 -14 -3 -7 -8 -54 -12 -105 -4 -50 -11 -91 -15 -91 -5 0
-17 15 -29 33 -22 36 -80 93 -129 126 -117 81 -357 121 -512 87z m1230 -696
l0 -420 -47 0 c-45 0 -50 3 -88 49 -97 117 -246 201 -540 301 -213 73 -358
140 -381 176 -10 14 -18 44 -18 67 -2 107 119 167 274 135 30 -6 60 -12 66
-14 11 -2 27 -14 88 -66 44 -37 86 -123 86 -176 l0 -43 118 2 c64 1 135 4 158
6 l41 5 2 76 c2 105 11 104 11 -1 l0 -87 70 0 70 0 0 203 0 202 45 2 45 2 0
-419z m-254 208 c-2 -24 -4 -70 -5 -103 -1 -43 -4 -56 -11 -45 -8 12 -10 12
-10 1 0 -8 -3 -12 -6 -8 -3 3 -2 12 2 19 5 7 10 36 11 63 4 59 12 115 18 115
2 0 3 -19 1 -42z m11 -780 c-2 -13 -4 -5 -4 17 -1 22 1 32 4 23 2 -10 2 -28 0
-40z m-52 32 c3 -5 1 -10 -4 -10 -6 0 -11 5 -11 10 0 6 2 10 4 10 3 0 8 -4 11
-10z m-8 -152 c-3 -8 -6 -5 -6 6 -1 11 2 17 5 13 3 -3 4 -12 1 -19z m50 -145
c-2 -16 -4 -5 -4 22 0 28 2 40 4 28 2 -13 2 -35 0 -50z m4 -140 c-9 -16 -10
-14 -11 12 0 21 3 26 11 18 8 -8 8 -16 0 -30z"/>
<path d="M2247 1245 c-3 -19 -17 -57 -31 -86 -14 -28 -26 -52 -26 -54 0 -6
1012 -4 1033 1 14 5 17 18 17 90 l0 84 -494 0 -493 0 -6 -35z"/>
</g>
</svg>
