<?xml version="1.0" standalone="no"?>
<!DOCTYPE svg PUBLIC "-//W3C//DTD SVG 20010904//EN"
 "http://www.w3.org/TR/2001/REC-SVG-20010904/DTD/svg10.dtd">
<svg version="1.0" xmlns="http://www.w3.org/2000/svg"
 width="256.000000pt" height="256.000000pt" viewBox="0 0 256.000000 256.000000"
 preserveAspectRatio="xMidYMid meet">
<metadata>
Created by potrace 1.11, written by Peter Selinger 2001-2013
</metadata>
<g transform="translate(0.000000,256.000000) scale(0.100000,-0.100000)"
fill="#000000" stroke="none">
<path d="M1070 2550 c0 -4 -6 -7 -12 -7 -28 -2 -74 -11 -90 -17 -9 -4 -22 -9
-30 -10 -39 -6 -143 -45 -213 -79 -264 -128 -480 -347 -604 -610 -83 -176
-112 -305 -116 -507 -5 -190 8 -285 55 -430 67 -206 167 -368 322 -522 183
-181 435 -311 684 -352 89 -15 379 -16 434 -1 14 3 39 9 55 12 117 20 386 137
443 191 8 6 23 17 34 23 11 6 32 20 46 32 26 20 194 190 219 221 21 24 103
154 103 161 0 4 8 19 19 33 10 15 26 48 36 74 10 27 22 48 27 48 5 0 7 4 4 8
-3 5 6 40 19 79 13 38 26 87 29 108 4 21 12 45 19 54 9 12 9 13 0 7 -7 -4 -13
-2 -13 3 0 6 4 11 9 11 10 0 8 402 -2 435 -14 44 -25 95 -20 95 3 0 0 6 -6 14
-7 8 -14 27 -17 43 -2 15 -7 35 -11 43 -3 8 -7 17 -8 20 -20 52 -33 80 -62
137 -20 37 -41 78 -47 90 -6 13 -14 23 -18 23 -5 0 -8 6 -8 14 0 8 -3 16 -7
18 -5 2 -27 28 -50 58 -23 31 -53 66 -67 79 -14 13 -23 28 -20 32 3 5 0 9 -5
9 -11 0 -46 28 -105 85 -17 17 -34 30 -38 30 -3 0 -18 10 -32 23 -15 12 -31
22 -37 22 -5 0 -8 4 -5 8 3 5 0 9 -7 9 -7 0 -30 11 -52 25 -22 14 -50 28 -63
32 -12 4 -19 12 -16 18 4 7 2 8 -4 4 -6 -4 -24 0 -40 8 -40 21 -199 73 -247
81 -22 4 -46 11 -52 17 -9 7 -13 7 -13 -2 0 -9 -4 -9 -13 -2 -14 12 -407 14
-407 2z"/>
</g>
</svg>
